# xmcd
#
# Track frame offsets:
#	150
#	10612
#	22455
#	38215
#	51070
#	65995
#	79290
#	90107
#	100530
#	117615
#	134782
#	148167
#	161485
#	174525
#	193432
#	207750
#	221800
#	233320
#	248005
#	263067
#	275882
#	290607
#	304882
#
# Disc length: 4261 seconds
#
# Revision: 4
# Processed by: cddbd v1.5.1PL0 Copyright (c) Steve Scherf et al.
# Submitted via: MusicWizard 7.0.2
#
DISCID=6010a317
DTITLE=Various Artist - Columbia Country Classics Vol. V - A New Tradition
DYEAR=1990
DGENRE=Country
TTITLE0=Johnny Cash - Daddy Sang Bass
TTITLE1=Bob Dylan - I'll Be Your Baby Tonight
TTITLE2=The Byrds - Hickory Wind
TTITLE3=Jim and Jesse - When I Stop Dreaming
TTITLE4=Poco - Pickin' Up The Pieces
TTITLE5=Herb Pederson - Can't You Hear Me Calling
TTITLE6=Ricky Skaggs - Uncle Pen
TTITLE7=Willie Nelson - Blue Eyes Crying In The Rain
TTITLE8=Crystal Gayle - Miss The Mississippi And You
TTITLE9=Willie Nelson and Ray Price - Faded Love
TTITLE10=Merle Haggard - Big City
TTITLE11=Asleep At The Wheel - Choo Choo Ch' Boogie
TTITLE12=Larry Gatlin and The Gatlin Brothers - Houston (Means I'm One Day Closer To You)
TTITLE13=Marty Robbins - El Paso City
TTITLE14=David Allan Coe - The Ride
TTITLE15=Moe Bandy - Hank Williams, You Wrote My Life
TTITLE16=David Wills - There's A Song On The Jukebox
TTITLE17=George Jones - He Stopped Loving Her Today
TTITLE18=Ricky Van Shelton - Life Turned Her That Way
TTITLE19=The O'Kanes - Oh Darlin'
TTITLE20=Rodney Crowell - I Couldn't Leave You If I Tried
TTITLE21=Sweethearts Of The Rodeo - So Sad (To Watch Good Love Go Bad)
TTITLE22=Rosanne Cash - Seven Year Ache
EXTD=(c)1990 Sony Music Entertainment Inc\nCOL 468123-2\nupc 5099746812324
EXTT0=Johnny Cash
EXTT1=Bob Dylan
EXTT2=The Byrds
EXTT3=Jim and Jesse
EXTT4=Poco
EXTT5=Herb Pedersen
EXTT6=Ricky Skaggs
EXTT7=Willie Nelson
EXTT8=Crystal Gayle
EXTT9=Willie Nelson and Ray Price
EXTT10=Merle Haggard
EXTT11=Asleep at the Wheel
EXTT12=Larry Gatlin and The Gatlin Brothers
EXTT13=Marty Robbins
EXTT14=David Allan Coe
EXTT15=Moe Brandy
EXTT16=David Willis
EXTT17=George Jones
EXTT18=Ricky Van Shelton
EXTT19=The O'Kanes
EXTT20=Rodney Crowell
EXTT21=Sweethearts Of The Rodeo
EXTT22=Rosanne Cash
PLAYORDER=
